<?xml version="1.0" standalone="no"?>
<!DOCTYPE svg PUBLIC "-//W3C//DTD SVG 20010904//EN"
 "http://www.w3.org/TR/2001/REC-SVG-20010904/DTD/svg10.dtd">
<svg version="1.0" xmlns="http://www.w3.org/2000/svg"
 width="51.000000pt" height="46.000000pt" viewBox="0 0 51.000000 46.000000"
 preserveAspectRatio="xMidYMid meet">

<g transform="translate(0.000000,46.000000) scale(0.100000,-0.100000)"
fill="#000000" stroke="none">
<path d="M10 379 c0 -48 1 -51 23 -45 12 3 25 6 30 6 4 0 7 4 7 9 0 5 -10 7
-21 4 -20 -6 -21 -3 -17 36 2 29 0 41 -9 41 -9 0 -13 -16 -13 -51z"/>
<path d="M246 412 c-7 -11 -1 -70 8 -79 4 -4 15 -2 25 4 10 7 28 9 39 6 11 -2
23 1 27 7 5 9 1 10 -14 5 -12 -4 -21 -2 -21 4 0 6 12 11 27 11 25 0 26 1 11
16 -20 20 -48 12 -55 -15 -8 -31 -33 -35 -33 -6 0 14 5 25 10 25 6 0 10 4 10
9 0 12 -28 22 -34 13z m91 -28 c-3 -3 -12 -4 -19 -1 -8 3 -5 6 6 6 11 1 17 -2
13 -5z"/>
<path d="M450 400 c-8 -5 -11 -12 -7 -16 4 -4 2 -13 -3 -19 -15 -18 10 -34 42
-28 21 4 25 9 18 22 -5 9 -11 24 -14 34 -6 19 -14 21 -36 7z m25 -10 c3 -5 1
-10 -4 -10 -6 0 -11 5 -11 10 0 6 2 10 4 10 3 0 8 -4 11 -10z m-5 -30 c0 -5
-4 -10 -10 -10 -5 0 -10 5 -10 10 0 6 5 10 10 10 6 0 10 -4 10 -10z"/>
<path d="M90 385 c-10 -12 -10 -18 0 -30 14 -17 36 -20 45 -5 3 5 0 7 -8 4 -8
-3 -18 -1 -22 5 -4 7 4 11 19 11 29 0 35 15 10 24 -23 9 -30 8 -44 -9z"/>
<path d="M178 393 c-10 -2 -18 -13 -18 -23 0 -27 18 -34 22 -10 4 28 22 30 26
3 4 -31 22 -29 22 1 0 13 -7 27 -16 30 -9 3 -16 5 -17 5 -1 -1 -10 -3 -19 -6z"/>
<path d="M370 363 c0 -18 5 -33 10 -33 6 0 10 11 10 25 0 14 5 25 11 25 5 0 7
-4 4 -10 -3 -5 -2 -10 4 -10 5 0 12 4 15 8 8 14 -8 28 -31 28 -19 0 -23 -6
-23 -33z"/>
<path d="M435 270 c-3 -6 1 -7 9 -4 18 7 21 14 7 14 -6 0 -13 -4 -16 -10z"/>
<path d="M286 245 c-20 -11 -33 -12 -46 -5 -10 6 -45 10 -77 10 -81 0 -104
-25 -126 -135 -8 -44 -14 -82 -12 -85 4 -6 447 -2 452 4 2 2 -2 37 -8 77 -9
52 -19 80 -34 95 -12 11 -24 25 -26 31 -7 18 -93 23 -123 8z m111 -9 c0 0 4
-30 8 -66 l7 -65 -46 3 c-25 2 -60 -1 -76 -7 l-31 -10 3 67 c3 58 6 68 26 78
18 9 97 9 109 0z m-158 -10 c7 -9 11 -38 9 -73 -2 -46 -6 -57 -18 -54 -8 2
-46 4 -83 3 -50 -1 -68 2 -64 11 2 7 10 38 17 70 l13 57 57 0 c37 0 62 -5 69
-14z m-158 -79 c-11 -36 -23 -72 -27 -78 -4 -7 3 -5 17 4 28 20 138 24 157 5
21 -21 13 -27 -15 -12 -33 17 -69 18 -79 3 -4 -7 0 -9 14 -5 22 7 72 -2 72
-13 0 -3 -38 -7 -84 -8 -98 -2 -101 1 -85 80 10 49 36 103 45 95 2 -2 -5 -34
-15 -71z m374 -27 l6 -55 -21 24 c-11 13 -20 35 -20 50 0 14 -3 37 -6 51 l-7
25 21 -20 c13 -13 22 -39 27 -75z m-23 -47 c20 -18 18 -18 -63 -24 -46 -3 -86
-4 -88 -2 -11 9 16 19 67 25 l57 6 -55 -2 c-30 -1 -63 -6 -72 -10 -12 -5 -18
-4 -18 3 0 34 135 37 172 4z"/>
<path d="M293 213 c-7 -2 -13 -9 -13 -15 0 -7 4 -7 13 0 6 6 28 12 47 15 l35
4 -35 1 c-19 0 -41 -2 -47 -5z"/>
<path d="M301 179 c-13 -5 -21 -12 -18 -15 3 -3 15 -1 26 5 11 7 33 9 48 5 22
-4 25 -3 13 5 -18 13 -37 13 -69 0z"/>
<path d="M293 143 c-7 -2 -13 -9 -13 -15 0 -7 4 -7 13 0 6 6 28 12 47 15 l35
4 -35 1 c-19 0 -41 -2 -47 -5z"/>
<path d="M140 220 c-11 -7 -3 -10 30 -10 26 0 51 -5 58 -12 9 -9 12 -9 12 0 0
6 -17 16 -37 21 -46 13 -44 13 -63 1z"/>
<path d="M160 171 c25 -4 51 -10 58 -14 6 -5 12 -4 12 1 0 15 -27 22 -73 21
l-42 -2 45 -6z"/>
<path d="M125 140 c-5 -9 -2 -10 11 -6 11 3 35 2 54 -4 23 -7 30 -6 23 1 -16
16 -79 23 -88 9z"/>
</g>
</svg>
